<svg id="Capa_1" data-name="Capa 1" xmlns="http://www.w3.org/2000/svg" viewBox="0 0 792.63 125.07"><defs><style>.cls-1{fill:#f86f11;}.cls-2{fill:#f7d176;}.cls-3{fill:#388e3c;}.cls-4{fill:#44a047;}.cls-5{fill:#2d7d31;}.cls-6{fill:#fbca25;}.cls-7{fill:#f8b20c;}.cls-8{fill:#fa8f10;}.cls-9{fill:#efa816;}</style></defs><title>Nutrialus</title><path d="M121.4,74.14v46.5H103.31V34.74H121.4V50.4a32.62,32.62,0,0,1,28.58-17q14.53,0,23.5,8.89t9,25.67v52.64H164.35V73.49q0-23.73-19.7-23.74A23.7,23.7,0,0,0,128.34,56Q121.39,62.19,121.4,74.14Z"/><path d="M267.7,81.24V34.74h18.08v85.9H267.7V105a32.58,32.58,0,0,1-28.59,17q-14.52,0-23.49-8.88t-9-25.67V34.74h18.08V81.89q0,23.73,19.7,23.74a23.68,23.68,0,0,0,16.31-6.22Q267.7,93.2,267.7,81.24Z"/><path d="M334.23,49.27v43.6q0,6.13,3.23,9.77t9,3.63q5.81,0,11.14-5.65l7.43,12.76q-9.54,8.55-21.08,8.55a27.13,27.13,0,0,1-19.7-8q-8.15-8-8.15-21.56V49.27H305.32V34.74h10.82v-27h18.09v27h22.6V49.27Z"/><path d="M424.49,51.69q-13.39,0-20.18,8.72t-6.79,23.42v36.81H379.44V34.74h18.08V52a37.59,37.59,0,0,1,11.87-13.24,28.67,28.67,0,0,1,15.91-5.33l.16,18.25Z"/><rect x="443.54" y="34.74" width="18.09" height="85.91"/><path d="M557.38,120.64H540.91V109.18q-10.65,12.75-28.58,12.75-13.41,0-22.2-7.58t-8.8-20.27q0-12.67,9.36-19T516,68.81h23.42V65.58q0-17.11-19.06-17.12-11.94,0-24.86,8.72l-8.08-11.3A55.63,55.63,0,0,1,523,33.44q15.18,0,24.79,7.68t9.6,24.14Zm-18.08-32V81.4H519q-19.53,0-19.54,12.28a10.9,10.9,0,0,0,4.85,9.6q4.85,3.31,13.48,3.31a24.47,24.47,0,0,0,15.1-4.84A15.52,15.52,0,0,0,539.3,88.67Z"/><path d="M600.66,120.64H582.57V.83h18.09Z"/><path class="cls-1" d="M686.89,81.24V34.74H705v85.9H686.89V105a32.61,32.61,0,0,1-28.59,17q-14.53,0-23.49-8.88t-9-25.67V34.74h18.08V81.89q0,23.73,19.7,23.74a23.68,23.68,0,0,0,16.31-6.22Q686.89,93.2,686.89,81.24Z"/><path class="cls-1" d="M792.33,95q0,12.27-8.88,19.62t-22.77,7.34a61,61,0,0,1-19.46-3.39A58.45,58.45,0,0,1,723.38,109l8.72-14q15,11.3,29.06,11.3,6.14,0,9.69-2.82a8.81,8.81,0,0,0,3.56-7.19q0-6.45-17.12-11.63c-.87-.32-1.51-.53-1.94-.64q-26.8-7.27-26.8-24.22a23,23,0,0,1,9.28-19.14q9.28-7.18,24.14-7.19a50.27,50.27,0,0,1,28.1,8.72l-6.78,13.41a40.48,40.48,0,0,0-22.77-7A20.88,20.88,0,0,0,750,51a7.63,7.63,0,0,0-4,7c0,2.8,1.39,4.84,4.19,6.14a41.21,41.21,0,0,0,8.16,2.74c3.49.86,6.59,1.72,9.28,2.58s5.3,1.84,7.83,2.91a51,51,0,0,1,8.16,4.52Q792.33,82.7,792.33,95Z"/><polygon class="cls-2" points="38.53 94.2 38.53 44.63 0.33 82.84 11.7 94.2 38.53 94.2"/><polygon class="cls-1" points="16.29 98.8 38.53 121.04 38.53 98.8 16.29 98.8"/><polygon class="cls-3" points="40.55 22.14 34.84 30.92 40.55 40.39 46.36 31.25 40.55 22.14"/><polygon class="cls-3" points="40.48 7.56 36.3 13.99 40.48 20.93 44.73 14.24 40.48 7.56"/><path class="cls-4" d="M39.5,7c.2.21-3.86,6.11-3.86,6.11S21.62.58,20.55.53C20.55.53,32.17-.87,39.5,7Z"/><path class="cls-5" d="M39.5,7a10.33,10.33,0,0,1-1.28,2.26L26.31,5C23.47,2.56,21,.55,20.55.53,20.55.53,32.17-.87,39.5,7Z"/><path class="cls-5" d="M29.28,6,26.31,5C23.47,2.56,21,.55,20.55.53A26.91,26.91,0,0,1,32.31,2.18Z"/><path class="cls-4" d="M41.33,7c-.2.21,3.86,6.11,3.86,6.11S59.21.58,60.28.53C60.28.53,48.66-.87,41.33,7Z"/><path class="cls-5" d="M41.33,7a10.33,10.33,0,0,0,1.28,2.26L54.52,5C57.36,2.56,59.85.55,60.28.53,60.28.53,48.66-.87,41.33,7Z"/><path class="cls-5" d="M51.55,6l3-1.07C57.36,2.56,59.85.55,60.28.53A26.91,26.91,0,0,0,48.52,2.18Z"/><polygon class="cls-5" points="40.48 7.56 36.3 13.99 44.03 15.33 44.73 14.24 40.48 7.56"/><path class="cls-3" d="M39.49,21c.37.41-5.46,9.62-5.46,9.62S8.16,7.54,6.18,7.43C6.18,7.43,26,6.51,39.49,21Z"/><path class="cls-4" d="M31.84,19.68c-6.06-1.21-13.52-2.77-13.52-2.77-5.84-5-11.27-9.43-12.14-9.48a48.79,48.79,0,0,1,19.43,3.94Z"/><path class="cls-3" d="M41.34,21c-.37.41,5.46,9.62,5.46,9.62S72.67,7.54,74.65,7.43C74.65,7.43,54.86,6.51,41.34,21Z"/><path class="cls-4" d="M49,19.68c6.06-1.21,13.52-2.77,13.52-2.77,5.84-5,11.27-9.43,12.14-9.48a48.79,48.79,0,0,0-19.43,3.94Z"/><polygon class="cls-5" points="40.55 22.14 34.84 30.92 35.99 32.82 44.77 28.76 40.55 22.14"/><polygon class="cls-4" points="38.06 25.96 34.84 30.92 40.55 40.39 43.41 35.89 38.06 25.96"/><polygon class="cls-6" points="38.53 73.78 19.43 63.73 0.33 82.84 11.7 94.2 38.53 94.2 38.53 73.78"/><polygon class="cls-7" points="0.33 82.84 11.7 94.2 38.53 94.2 38.53 85.94 0.33 82.84"/><polygon class="cls-2" points="42.17 94.2 42.17 44.63 80.37 82.84 69 94.2 42.17 94.2"/><polygon class="cls-6" points="42.17 73.78 61.27 63.73 80.37 82.84 69 94.2 42.17 94.2 42.17 73.78"/><polygon class="cls-7" points="80.37 82.84 69 94.2 42.17 94.2 42.17 85.94 80.37 82.84"/><polygon class="cls-8" points="16.29 98.8 22.66 105.17 38.53 110.65 38.53 98.8 16.29 98.8"/><polygon class="cls-9" points="16.29 98.8 22.66 105.17 38.53 101.26 38.53 98.8 16.29 98.8"/><polygon class="cls-1" points="64.41 98.8 42.17 121.04 42.17 98.8 64.41 98.8"/><polygon class="cls-8" points="64.41 98.8 58.03 105.17 42.17 110.65 42.17 98.8 64.41 98.8"/><polygon class="cls-9" points="64.41 98.8 58.03 105.17 42.17 101.26 42.17 98.8 64.41 98.8"/></svg>